<svg id="visual" viewBox="0 0 900 600" width="900" height="600" xmlns="http://www.w3.org/2000/svg" xmlns:xlink="http://www.w3.org/1999/xlink" version="1.1"><rect x="0" y="0" width="900" height="600" fill="#001220"></rect><path d="M0 435L21.5 435.2C43 435.3 86 435.7 128.8 436.8C171.7 438 214.3 440 257.2 436.2C300 432.3 343 422.7 385.8 409.2C428.7 395.7 471.3 378.3 514.2 380.3C557 382.3 600 403.7 642.8 417.7C685.7 431.7 728.3 438.3 771.2 436.7C814 435 857 425 878.5 420L900 415L900 601L878.5 601C857 601 814 601 771.2 601C728.3 601 685.7 601 642.8 601C600 601 557 601 514.2 601C471.3 601 428.7 601 385.8 601C343 601 300 601 257.2 601C214.3 601 171.7 601 128.8 601C86 601 43 601 21.5 601L0 601Z" fill="#00a27a"></path><path d="M0 449L21.5 452.8C43 456.7 86 464.3 128.8 457.3C171.7 450.3 214.3 428.7 257.2 426.8C300 425 343 443 385.8 450.8C428.7 458.7 471.3 456.3 514.2 457.8C557 459.3 600 464.7 642.8 459C685.7 453.3 728.3 436.7 771.2 435C814 433.3 857 446.7 878.5 453.3L900 460L900 601L878.5 601C857 601 814 601 771.2 601C728.3 601 685.7 601 642.8 601C600 601 557 601 514.2 601C471.3 601 428.7 601 385.8 601C343 601 300 601 257.2 601C214.3 601 171.7 601 128.8 601C86 601 43 601 21.5 601L0 601Z" fill="#047a55"></path><path d="M0 474L21.5 471.3C43 468.7 86 463.3 128.8 459C171.7 454.7 214.3 451.3 257.2 456C300 460.7 343 473.3 385.8 479.3C428.7 485.3 471.3 484.7 514.2 482.8C557 481 600 478 642.8 470.2C685.7 462.3 728.3 449.7 771.2 443.3C814 437 857 437 878.5 437L900 437L900 601L878.5 601C857 601 814 601 771.2 601C728.3 601 685.7 601 642.8 601C600 601 557 601 514.2 601C471.3 601 428.7 601 385.8 601C343 601 300 601 257.2 601C214.3 601 171.7 601 128.8 601C86 601 43 601 21.5 601L0 601Z" fill="#005534"></path><path d="M0 517L21.5 515.2C43 513.3 86 509.7 128.8 505.7C171.7 501.7 214.3 497.3 257.2 503.2C300 509 343 525 385.8 528.2C428.7 531.3 471.3 521.7 514.2 517C557 512.3 600 512.7 642.8 511.2C685.7 509.7 728.3 506.3 771.2 508.8C814 511.3 857 519.7 878.5 523.8L900 528L900 601L878.5 601C857 601 814 601 771.2 601C728.3 601 685.7 601 642.8 601C600 601 557 601 514.2 601C471.3 601 428.7 601 385.8 601C343 601 300 601 257.2 601C214.3 601 171.7 601 128.8 601C86 601 43 601 21.5 601L0 601Z" fill="#003013"></path><path d="M0 568L21.5 566.8C43 565.7 86 563.3 128.8 561.2C171.7 559 214.3 557 257.2 557.2C300 557.3 343 559.7 385.8 557.8C428.7 556 471.3 550 514.2 547.5C557 545 600 546 642.8 549C685.7 552 728.3 557 771.2 557.8C814 558.7 857 555.3 878.5 553.7L900 552L900 601L878.5 601C857 601 814 601 771.2 601C728.3 601 685.7 601 642.8 601C600 601 557 601 514.2 601C471.3 601 428.7 601 385.8 601C343 601 300 601 257.2 601C214.3 601 171.7 601 128.8 601C86 601 43 601 21.5 601L0 601Z" fill="#000000"></path></svg>