<?xml version="1.0" encoding="utf-8"?>
<!-- Generator: Adobe Illustrator 23.0.3, SVG Export Plug-In . SVG Version: 6.00 Build 0)  -->
<svg version="1.1" id="Layer_1" xmlns="http://www.w3.org/2000/svg" xmlns:xlink="http://www.w3.org/1999/xlink" x="0px" y="0px"
	 viewBox="0 0 512 512" style="enable-background:new 0 0 512 512;" xml:space="preserve">
<style type="text/css">
	.st0{fill:#040404;}
	.st1{fill:#F66292;}
	.st2{fill:#FFFFFF;}
	.st3{fill:url(#SVGID_1_);}
	.st4{fill:url(#SVGID_2_);}
	.st5{fill:url(#SVGID_3_);}
	.st6{fill:url(#SVGID_4_);}
	.st7{fill:url(#SVGID_5_);}
	.st8{fill:url(#SVGID_6_);}
	.st9{fill:url(#SVGID_7_);}
	.st10{fill:url(#SVGID_8_);}
	.st11{fill:url(#SVGID_9_);}
	.st12{fill:url(#SVGID_10_);}
	.st13{fill:url(#SVGID_11_);}
	.st14{fill:url(#SVGID_12_);}
	.st15{fill:url(#SVGID_13_);}
	.st16{fill:url(#SVGID_14_);}
	.st17{fill:url(#SVGID_15_);}
	.st18{fill:url(#SVGID_16_);}
	.st19{fill:url(#SVGID_17_);}
	.st20{fill:url(#SVGID_18_);}
	.st21{fill:url(#SVGID_19_);}
	.st22{fill:url(#SVGID_20_);}
	.st23{fill:url(#SVGID_21_);}
	.st24{fill:url(#SVGID_22_);}
	.st25{fill:url(#SVGID_23_);}
	.st26{fill:url(#SVGID_24_);}
	.st27{fill:url(#SVGID_25_);}
	.st28{fill:url(#SVGID_26_);}
	.st29{fill:url(#SVGID_27_);}
	.st30{fill:url(#SVGID_28_);}
	.st31{fill:url(#SVGID_29_);}
	.st32{fill:url(#SVGID_30_);}
	.st33{fill:url(#SVGID_31_);}
	.st34{fill:url(#SVGID_32_);}
	.st35{fill:url(#SVGID_33_);}
	.st36{fill:url(#SVGID_34_);}
	.st37{fill:url(#SVGID_35_);}
	.st38{fill:url(#SVGID_36_);}
	.st39{fill:url(#SVGID_37_);}
	.st40{fill:url(#SVGID_38_);}
	.st41{fill:url(#SVGID_39_);}
	.st42{fill:url(#SVGID_40_);}
	.st43{fill:url(#SVGID_41_);}
	.st44{fill:url(#SVGID_42_);}
	.st45{fill:url(#SVGID_43_);}
	.st46{fill:url(#SVGID_44_);}
	.st47{fill:url(#SVGID_45_);}
	.st48{fill:url(#SVGID_46_);}
	.st49{fill:url(#SVGID_47_);}
	.st50{fill:url(#SVGID_48_);}
	.st51{fill:url(#SVGID_49_);}
	.st52{fill:url(#SVGID_50_);}
	.st53{fill:url(#SVGID_51_);}
	.st54{fill:url(#SVGID_52_);}
	.st55{fill:url(#SVGID_53_);}
	.st56{fill:url(#SVGID_54_);}
	.st57{fill:url(#SVGID_55_);}
	.st58{fill:#0B8DFF;}
	.st59{fill:#FF7E2A;}
	.st60{fill:#F18585;}
	.st61{fill:#44BFC7;}
	.st62{fill:#669ACC;}
	.st63{fill:#D696BB;}
	.st64{fill:#7545FD;}
	.st65{fill:#FFC301;}
	.st66{fill:#EC3843;}
	.st67{fill:#0B8DA3;}
	.st68{fill:#A895CD;}
	.st69{fill:#12D316;}
	.st70{fill:#61BA5E;}
	.st71{fill:#20CDF7;}
	.st72{fill:#F33A64;}
	.st73{fill:#7BC7A3;}
	.st74{fill:#020202;}
	.st75{fill:#030303;}
	.st76{fill:#0D0D0D;}
	.st77{fill:#0A0A0A;}
	.st78{fill:#050505;}
	.st79{fill:#080808;}
	.st80{fill:#060606;}
	.st81{fill:#F9CDBD;}
	.st82{fill:#1C0000;}
	.st83{fill:#FD598B;}
	.st84{fill:#F9F9F9;}
	.st85{fill:#F7F7F7;}
	.st86{fill:#250103;}
	.st87{fill:#F0658F;}
</style>
<g>
	<path class="st74" d="M376.9,340.7c0.1-19.6-7.4-35.9-23-47.4c-6.4-4.7-7.8-9.6-7.7-16.7c0.3-24.5,0.1-49.1,0.1-73.6
		c0-24.1,0.3-48.2-0.1-72.3c-0.5-39.3-27.5-70.2-66.1-75.4c-10.5-1.4-21.4-0.7-32.1-0.7c-50.6,0-81.6,30.8-81.8,81.6
		c-0.2,46.9-0.1,93.7,0,140.6c0,6.5-0.8,11.4-7,15.8c-16.6,12-24.3,29-24.2,49.6c0.1,25.9-0.1,51.8,0.1,77.7
		c0.1,24.1,12.9,37,37.2,37.3c20.1,0.3,40.4,2,60.2-0.6c16-2.1,31-2.1,47-0.1c20.2,2.6,41,0.9,61.5,0.6
		c22.8-0.4,35.5-13.2,35.7-35.9C377,394.2,376.8,367.4,376.9,340.7z M179.9,124.5c1.1-32.5,28.7-56.6,61.5-56.7
		c14.6-0.1,29.4-1.9,44,1.7c26.3,6.6,46.5,28,47.3,54.9c1.3,48.2,0.5,96.4,0.5,144.6c0,3.4,0,6.9,0,12.4
		c-15.5-7.2-29.8-13.3-43.5-20.4c-7.1-3.7-6.2-10.1,0-13.4c26.4-14.4,33.5-37.7,32-65.4c-0.2-4.5-0.4-9,0.1-13.4
		c1.6-17,0.5-31.3-21.1-35.5c-8.4-1.6-14.8-9.5-19-17.9c-2.8-5.6-7.8-9.4-12.1-2.9c-14.5,21.9-37.5,26.3-60.3,29.7
		c-14.3,2.1-20.6,6.6-18.4,21.6c1.3,8.7,0.6,17.8,0.2,26.7c-1,24.5,8.8,43,29.6,56c8.8,5.5,8.5,11.5-0.8,16.1
		c-10.8,5.3-21.9,9.8-32.7,15.2c-5.8,2.9-7.9,2-7.9-4.7C179.4,223.6,178.3,174,179.9,124.5z M308.6,188.4
		c0.8,19.6-4.9,36.6-23.1,46.1c-19.2,10-39.6,9.8-58.9-0.1c-14-7.2-21.2-19.8-22.3-35.6c0-0.4-0.1-0.9-0.1-1.3
		c0-12.5-3.5-26.5,1.1-36.9c4.8-10.6,21.2-6.3,31.9-10.6c11.2-4.5,22.7-8.2,31.6-16.5c4.4-4,6.9-3.9,10.5,0.5c2.5,3,5.6,6.5,9.1,7.6
		c19.8,5.8,24.1,19.3,20.1,34.2C308.6,182.1,308.5,185.2,308.6,188.4z M254.7,391.3c18.7-0.3,37.5,0,56.2-0.1c9,0,16.4,2.3,20,12.7
		c-39.8,0-78.7,0-117.6,0c-0.4-13.2,8.1-22.2,12.9-32.9c2.9-6.3,3.6-13.7,4.8-20.7c1-6.2,3.9-10.3,10.5-9.5
		c6.4,0.8,9.3,5.5,8.3,11.5c-1.3,8.3-2.5,16.9-5.6,24.7C239.7,388.6,243.9,391.5,254.7,391.3z M363.8,420
		c-0.1,16.5-7.2,23.7-23.6,24c-20.1,0.3-40.2,0.1-60.3,0.1c-9,0-16.6-2.5-16.8-12.9c-0.3-11.3,7.6-13.6,17.2-13.5
		c17.9,0.2,35.7-0.3,53.6,0c10,0.2,14.6-3.5,11.6-13.7c-3.7-12.6-0.3-25.8-3.8-38.5c-2.5-9.2-5.8-17.8-12.7-24.5
		c-3.1-3-6.9-5-10.5-1.4c-3.5,3.4-2.3,7.1,1.1,10.5c8.2,8.5,10.4,19,10.8,31.5c-19.8-6.1-38.2-2.7-56.4-3.4
		c-14.6-0.5-15.5-1.4-10.4-14.7c1.1-2.9,2.4-5.9,4.4-8.2c6.5-7.8,12.3-14.8-5-14.6c-1.8,0-3.6-3.5-5.4-5.4c-6.8-7-14.9-9.9-24.3-6.5
		c-9.3,3.3-14.3,10.2-15.3,20c-0.8,7.5-1.5,15-6.4,22c-7.2-7.3-15-12.9-24.9-12.6c-0.3-1.8-0.5-2.3-0.4-2.7
		c1.6-5.5,13.7-10.1,4.4-16.1c-8.9-5.7-13,4.7-16.5,10.8c-4.4,7.6-8.3,15.4-13.1,22.9c-12.4,19.4,2.1,43.8,25.9,44.5
		c15.2,0.5,30.4,0.3,45.5,0c9.4-0.2,16.6,3.4,16.7,13c0.1,9.6-7,13.5-16.4,13.5c-20.5-0.2-41.1,0.2-61.6-0.2
		c-15.6-0.3-22.9-7.7-23.1-23.1c-0.2-26.8-0.2-53.6,0-80.3c0.2-19.7,9.5-34.1,27.1-42.7c18-8.8,36.3-16.9,54.4-25.5
		c3.9-1.8,8.6-2.7,9.7-8.1c0.8-3.6-2.2-9.8,2.7-10.5c9.2-1.2,18.6-0.4,28-0.2c0.7,0,2,2.2,1.9,3.1c-2,13.1,8.6,14.9,16.8,18.8
		c14.9,7,29.9,13.7,44.8,20.6c19.6,9.1,30.2,24.2,30.1,46.3C363.8,368.2,364.1,394.1,363.8,420z M202.9,388.9
		c-0.6,9.1-6.5,14.4-15.9,15.4c-8.8,0.9-17.3-7.7-16.9-16.8c0.5-10,6.5-15.4,16-16.4C195.1,370.3,203,378.6,202.9,388.9z"/>
</g>
</svg>
