<?xml version="1.0" encoding="utf-8"?>
<!-- Generator: Adobe Illustrator 23.0.2, SVG Export Plug-In . SVG Version: 6.00 Build 0)  -->
<svg version="1.1" id="Layer_1" xmlns="http://www.w3.org/2000/svg" xmlns:xlink="http://www.w3.org/1999/xlink" x="0px" y="0px"
	 viewBox="0 0 346.1094 271.8056" enable-background="new 0 0 346.1094 271.8056" xml:space="preserve">
<g>
	<path d="M260.3223,34c5.5234,0,10-4.4776,10-10V10c0-5.5225-4.4766-10-10-10h-43.6055v34H260.3223z M259.2187,4.3339V8.667
		h-37.3339V4.3339H259.2187z"/>
	<path d="M135.3828,0v34h75.334V0H135.3828z M141.7168,8.667V4.3339h62.668V8.667H141.7168z"/>
	<path d="M85.7773,0c-5.5214,0-10,4.4775-10,10v14c0,5.5224,4.4786,10,10,10h43.6055V0H85.7773z M86.8828,8.667V4.3339h37.334V8.667
		H86.8828z"/>
	<path d="M201.4004,79.2285c0.8887,1.4023,2.9023,1.8242,5.5205,1.7324c0.0811,0.6064,0.4033,1.1934,0.9404,1.75
		c-0.9433,2.4834-1.4648,5.1738-1.4648,7.9883c0,12.4277,10.0742,22.5,22.5,22.5c12.4277,0,22.5019-10.0723,22.5019-22.5
		c0-2.8145-0.5214-5.5049-1.4648-7.9883c0.5371-0.5566,0.8594-1.1436,0.9404-1.75c2.6182,0.0918,4.6309-0.3301,5.5205-1.7324
		c1.5078-2.377,0.294-8.5684-4.2207-14.1113c-1.666-0.1485-3.4375-0.293-5.3301-0.4463l-3.3554-0.2725
		c-2.3301-0.1943-4.9717-0.3916-7.834-0.5869c-0.8047,0.4795-1.6875,0.9463-2.5713,1.3017c-0.6533,1.6807-2.2744,2.875-4.1865,2.875
		c-1.9102,0-3.5332-1.1943-4.1856-2.875c-1.4443-0.58-2.8925-1.4599-3.9824-2.1992c-4.04-0.2138-8.2344-0.416-12.4639-0.5986
		C201.6025,68.3974,199.6309,76.4394,201.4004,79.2285z M228.8965,70.3222c12.1523,0,22.0019,3.1358,22.0019,7
		c0,0.5752-0.2226,1.1328-0.6328,1.668c-2.3515-3.0615-11.0234-5.333-21.3691-5.333c-10.3438,0-19.0156,2.2715-21.3672,5.333
		c-0.4102-0.5352-0.6328-1.0928-0.6328-1.668C206.8965,73.458,216.7461,70.3222,228.8965,70.3222z"/>
	<path d="M42.3418,122.0937l0.5469-1.4433l0.1972-0.5245c0.9375-2.4795,2.2852-6.0459,3.8682-10.247h-6.2373v-4.0713
		c0-4.4981-3.6465-8.1445-8.1426-8.1445H8.1426C3.6465,97.6631,0,101.3095,0,105.8076v8.1426c0,4.498,3.6465,8.1435,8.1426,8.1435
		h28.5058h4.0684H42.3418z"/>
	<path d="M337.9668,97.6631h-24.4336c-4.4961,0-8.1445,3.6464-8.1445,8.1445v4.0713h-6.2451
		c1.4804,3.9287,2.6699,7.0771,3.3701,8.9306l0.6992,1.8409l0.2012,0.5322l0.3457,0.9111h1.6289h4.0742h28.5039
		c4.4941,0,8.1426-3.6455,8.1426-8.1435v-8.1426C346.1094,101.3095,342.4609,97.6631,337.9668,97.6631z"/>
	<path d="M182.5527,66.3203h-18.998c-2.6231,0-4.75,2.126-4.75,4.751c0,2.621,2.1269,4.749,4.75,4.749h18.998
		c2.625,0,4.75-2.128,4.75-4.749C187.3027,68.4463,185.1777,66.3203,182.5527,66.3203z"/>
	<path d="M302.1895,124.3935l-1.1114-2.9346c-0.0215-0.0566-21.1308-55.871-24.0898-64.7246
		c-1.7969-5.6552-6.5215-8.7929-12.0293-10.1406c-5.5645-1.4433-12.4102-1.79-20.7754-2.4931
		c-18.2188-1.5196-51.3828-3.0264-71.1309-3.0264c-19.7558,0-52.914,1.5068-71.1328,3.0264
		c-8.3633,0.7031-15.209,1.0498-20.7793,2.4931c-5.5,1.3477-10.2344,4.4854-12.0312,10.1406
		c-2.9492,8.8536-24.0664,64.6563-24.0899,64.7246l-1.1113,2.9385c-8.8066,4.4307-29.2031,16.6035-29.2031,34.3428
		c0,22.623,0,48.8623,0,48.8623h316.6972c0,0,0-26.2393,0-48.8623C331.4023,140.9951,310.9922,128.8203,302.1895,124.3935z
		 M74.9082,70.6045c1.2148-3.3877,3.1621-4.8301,7.7852-6.1573c4.5644-1.2109,11.289-1.6191,19.7343-2.3213
		c17.9668-1.499,51.1582-3.0009,70.625-3.0009c19.461,0,52.6582,1.5019,70.6231,3.0009c8.4433,0.7022,15.1738,1.1104,19.7304,2.3213
		c4.6211,1.3272,6.5782,2.7696,7.7891,6.1573c2.5742,7.706,17.668,35.8027,22.6035,48.8857h-241.5
		C57.2402,106.4072,72.3379,78.3105,74.9082,70.6045z M94.7207,178.0009c0,5.5225-4.4785,10-10,10h-43.334
		c-5.5234,0-10-4.4775-10-10v-10.667c0-5.5224,4.4766-10,10-10h43.334c5.5215,0,10,4.4776,10,10V178.0009z M216.5527,194.7509h-87
		v-7.5h87V194.7509z M216.5527,181.0839h-87v-7.5h87V181.0839z M216.5527,167.4179h-87v-7.5h87V167.4179z M314.7207,167.3339v10.667
		c0,5.5225-4.4785,10-10,10h-43.334c-5.5234,0-10-4.4775-10-10v-10.667c0-5.5224,4.4766-10,10-10h43.334
		C310.2422,157.3339,314.7207,161.8115,314.7207,167.3339z"/>
	<path d="M10.1797,212.6875c0,0,0,21.1162,13.5683,21.1162c0.6416,0,1.5577,0,2.7168,0v29.8584c0,4.497,3.6446,8.1435,8.1465,8.1435
		h32.5742c4.4922,0,8.1446-3.6465,8.1446-8.1435V247.373c48.5722,0,156.2051,0,200.4101,0v16.8242
		c0,4.2012,3.4004,7.6084,7.6075,7.6084h30.4277c4.1992,0,7.6094-3.4072,7.6094-7.6084v-30.3935c0.3652,0,0.7021,0,0.9726,0
		c13.5703,0,13.5703-21.1162,13.5703-21.1162h-162.875H10.1797z"/>
	<path d="M84.7187,161.3339h-43.332c-3.3086,0-6,2.6924-6,6v10.667c0,3.3077,2.6914,6,6,6h43.332c3.3106,0,6.002-2.6923,6.002-6
		v-10.667C90.7207,164.0263,88.0293,161.3339,84.7187,161.3339z"/>
	<path d="M261.3867,161.3339c-3.3086,0-6,2.6924-6,6v10.667c0,3.3077,2.6914,6,6,6h43.332c3.3106,0,6.002-2.6923,6.002-6v-10.667
		c0-3.3076-2.6914-6-6.002-6H261.3867z"/>
</g>
</svg>
