<?xml version="1.0" encoding="UTF-8" standalone="no"?> <svg height="346pt" viewBox="-3 0 346 346.13807" width="346pt" xmlns="http://www.w3.org/2000/svg"><path d="m340.070312 101.699219v43.910156h-129v-75.382813h97.527344c17.382813.003907 31.472656 14.089844 31.472656 31.472657zm0 0" fill="#af593c"/><path d="m131.070312 145.609375h186.777344v169.058594c0 17.378906-14.089844 31.46875-31.46875 31.46875h-232.621094c-17.378906 0-31.46875-14.089844-31.46875-31.46875v-169.058594zm119 97.457031-16.601562-20.597656 1.320312-26.421875-25.53125-6.910156-14.46875-22.148438-24.71875 9.410157-24.722656-9.410157-14.46875 22.148438-25.53125 6.910156 1.320313 26.421875-16.597657 20.597656 16.597657 20.601563-1.320313 26.421875 25.53125 6.910156 14.46875 22.148438 24.722656-9.410157 24.71875 9.410157 14.46875-22.148438 25.53125-6.910156-1.320312-26.421875zm0 0" fill="#e48e66"/><path d="m170.929688 69.609375 60.980468-60.980469c11.503906-11.503906 30.15625-11.503906 41.660156 0 11.503907 11.503906 11.503907 30.15625 0 41.660156l-19.320312 19.828126v.109374h-83.941406zm0 0" fill="#e48e66"/><path d="m233.46875 222.46875 16.601562 20.597656-16.601562 20.601563 1.320312 26.421875-25.53125 6.910156-14.46875 22.148438-24.71875-9.410157-24.722656 9.410157-14.46875-22.148438-25.53125-6.910156 1.320313-26.421875-16.597657-20.601563 16.597657-20.597656-1.320313-26.421875 25.53125-6.910156 14.46875-22.148438 24.722656 9.410157 24.71875-9.410157 14.46875 22.148438 25.53125 6.910156zm0 0" fill="#af593c"/><path d="m170.308594 70.226562h40.761718v75.382813h-80v-75.382813zm0 0" fill="#f8ec7d"/><path d="m131.070312 70.226562h-43.292968v-.4375l-5.097656-5.101562c-11.503907-11.503906-11.503907-30.15625 0-41.660156 11.503906-11.503906 30.15625-11.503906 41.660156 0l46.589844 46.582031-.621094.617187zm0 0" fill="#e48e66"/><path d="m131.070312 70.226562v75.382813h-130.9999995v-43.910156c0-17.382813 14.0898435-31.46875 31.4687495-31.472657zm0 0" fill="#af593c"/><g fill="#f8ec7d"><path d="m145.878906 236.878906c-11.457031 0-20.746094-9.285156-20.75-20.742187s9.28125-20.746094 20.738282-20.75c11.460937 0 20.75 9.285156 20.75 20.742187-.007813 11.449219-9.285157 20.734375-20.738282 20.75zm0-27.492187c-3.726562 0-6.75 3.019531-6.75 6.746093 0 3.726563 3.019532 6.746094 6.746094 6.746094s6.746094-3.023437 6.742188-6.75c-.003907-3.722656-3.019532-6.738281-6.738282-6.742187zm0 0"/><path d="m193.160156 291.847656c-11.460937.003906-20.75-9.285156-20.75-20.742187-.003906-11.460938 9.285156-20.75 20.746094-20.746094 11.457031 0 20.746094 9.289063 20.742188 20.75-.011719 11.449219-9.289063 20.726563-20.738282 20.738281zm0-27.488281c-3.726562-.003906-6.75 3.011719-6.75 6.738281-.003906 3.726563 3.015625 6.746094 6.738282 6.75 3.726562.003906 6.746093-3.015625 6.75-6.738281 0-3.726563-3.015626-6.746094-6.738282-6.75zm0 0"/><path d="m149.132812 282.160156c-2.570312-.003906-4.929687-1.410156-6.152343-3.671875-1.21875-2.257812-1.109375-5.003906.296875-7.152343l44.019531-67.492188c2.121094-3.207031 6.4375-4.101562 9.660156-2 3.222657 2.101562 4.144531 6.410156 2.066407 9.648438l-44.019532 67.488281c-1.292968 1.984375-3.503906 3.179687-5.871094 3.179687zm0 0"/></g></svg>