<?xml version="1.0" encoding="UTF-8" standalone="no"?> <svg width="64" height="64" viewBox="0 0 64 64" fill="none" xmlns="http://www.w3.org/2000/svg">
<path d="M60.6299 26.9998C60.3905 23.978 59.5244 21.0393 58.0868 18.3707C56.6492 15.702 54.6716 13.3621 52.2799 11.4998C46.9999 7.85976 40.9999 7.79977 38.6399 13.8098C36.5399 20.7198 37.0399 24.8098 43.6399 26.5598C43.9019 26.653 44.1242 26.8329 44.2699 27.0698C37.9299 30.5498 33.8299 36.8698 31.9999 45.8998C30.1699 36.8998 26.0699 30.5498 19.7599 27.0698C19.9056 26.8329 20.1279 26.653 20.3899 26.5598C26.9599 24.8298 27.4599 20.7198 25.3899 13.8098C22.9999 7.77977 16.9999 7.85976 11.6699 11.5398C9.28995 13.3995 7.32363 15.7347 5.8963 18.3965C4.46897 21.0583 3.61196 23.9883 3.37989 26.9998C2.25989 33.9998 3.61989 39.9998 7.32989 44.2698C10.7499 48.0898 16.0999 49.5198 19.2299 44.2698C21.8399 40.1998 22.1199 33.2698 19.8999 29.4498C26.6099 33.7798 30.3499 41.9998 30.9999 54.0598C31.0117 54.2124 31.0584 54.3604 31.1364 54.4921C31.2145 54.6239 31.3217 54.736 31.4499 54.8198C31.6415 54.9482 31.8717 55.0063 32.1013 54.9845C32.3309 54.9626 32.5459 54.862 32.7099 54.6998C32.8658 54.5185 32.9664 54.2964 32.9999 54.0598C33.6499 42.0598 37.3899 33.7798 44.0999 29.4798C41.8799 33.2798 42.1699 40.2298 44.7299 44.2498C47.8899 49.5298 53.2199 48.1098 56.6699 44.2498C60.3799 39.9998 61.7399 33.9998 60.6299 26.9998Z" fill="black"/>
</svg>
