<?xml version="1.0" encoding="UTF-8" standalone="no"?> <svg width="64" height="64" viewBox="0 0 64 64" fill="none" xmlns="http://www.w3.org/2000/svg">
<path d="M53 16.51C53 16.51 53 16.45 53 16.42C52.9954 16.3208 52.9752 16.2229 52.94 16.13V16.13C52.8867 16.0132 52.8159 15.9053 52.73 15.81V15.81L40.21 3.29999C40.1128 3.21166 40.0012 3.14063 39.88 3.08999V3.08999C39.8268 3.08524 39.7732 3.08524 39.72 3.08999C39.6467 3.08524 39.5733 3.08524 39.5 3.08999H17.24C15.6013 3.0924 14.0291 3.7383 12.862 4.88858C11.6949 6.03886 11.0262 7.60151 11 9.23999V54.76C11.0026 56.4141 11.6609 57.9998 12.8306 59.1694C14.0002 60.3391 15.5859 60.9973 17.24 61H46.76C48.4141 60.9973 49.9998 60.3391 51.1694 59.1694C52.3391 57.9998 52.9974 56.4141 53 54.76V16.51Z" fill="#D9D6D3"/>
<path d="M41.32 32.7H35.09V26.48C35.09 26.2148 34.9846 25.9604 34.7971 25.7729C34.6096 25.5853 34.3552 25.48 34.09 25.48H29.91C29.6448 25.48 29.3904 25.5853 29.2029 25.7729C29.0153 25.9604 28.91 26.2148 28.91 26.48V32.7H22.68C22.4148 32.7 22.1604 32.8053 21.9729 32.9929C21.7853 33.1804 21.68 33.4348 21.68 33.7V37.89C21.68 38.1552 21.7853 38.4096 21.9729 38.5971C22.1604 38.7846 22.4148 38.89 22.68 38.89H28.91V45.11C28.91 45.3752 29.0153 45.6296 29.2029 45.8171C29.3904 46.0046 29.6448 46.11 29.91 46.11H34.09C34.3552 46.11 34.6096 46.0046 34.7971 45.8171C34.9846 45.6296 35.09 45.3752 35.09 45.11V38.89H41.32C41.5852 38.89 41.8396 38.7846 42.0271 38.5971C42.2146 38.4096 42.32 38.1552 42.32 37.89V33.7C42.32 33.5687 42.2941 33.4386 42.2439 33.3173C42.1936 33.196 42.12 33.0857 42.0271 32.9929C41.9342 32.9 41.824 32.8264 41.7027 32.7761C41.5813 32.7258 41.4513 32.7 41.32 32.7Z" fill="#EE283B"/>
<path d="M53 16.42C52.9954 16.3207 52.9752 16.2229 52.94 16.13C52.8924 16.0072 52.821 15.8951 52.73 15.8V15.8L40.21 3.29998C40.1131 3.2087 40.0015 3.13434 39.88 3.07998C39.8268 3.07523 39.7732 3.07523 39.72 3.07998C39.6467 3.07523 39.5733 3.07523 39.5 3.07998H39.45C39.3365 3.08181 39.2245 3.10558 39.12 3.14998C39.0323 3.18654 38.9513 3.23721 38.88 3.29998C38.8524 3.32338 38.8222 3.34351 38.79 3.35998C38.7363 3.42862 38.6895 3.5023 38.65 3.57998C38.6291 3.61493 38.6057 3.64835 38.58 3.67998C38.5275 3.8033 38.5003 3.93593 38.5 4.06998V16.51C38.5 16.7752 38.6054 17.0295 38.7929 17.2171C38.9804 17.4046 39.2348 17.51 39.5 17.51H52.06C52.1451 17.504 52.2291 17.4872 52.31 17.46L52.46 17.39L52.57 17.32C52.6189 17.2936 52.6657 17.2635 52.71 17.23C52.7637 17.1613 52.8105 17.0877 52.85 17.01C52.85 17.01 52.91 16.94 52.92 16.9C52.9712 16.7798 52.9984 16.6507 53 16.52C53 16.52 53 16.45 53 16.42Z" fill="#A39F9A"/>
</svg>
