<?xml version="1.0" encoding="utf-8"?>
<!-- Generator: Adobe Illustrator 25.2.1, SVG Export Plug-In . SVG Version: 6.00 Build 0)  -->
<svg version="1.1" id="Layer_1" xmlns="http://www.w3.org/2000/svg" xmlns:xlink="http://www.w3.org/1999/xlink" x="0px" y="0px"
	 viewBox="0 0 97.0156 230.3881" enable-background="new 0 0 97.0156 230.3881" xml:space="preserve">
<g>
	<path d="M26.8402,220.3881c0,5.5234,4.4766,10,10,10c5.5215,0,10-4.4766,10-10v-7.478c-7.6598-0.0939-14.3361-0.8215-20-1.8389
		V220.3881z"/>
	<path d="M50.1742,220.3881c0,5.5234,4.4756,10,10,10c5.5195,0,10-4.4766,10-10v-9.3169c-5.6639,1.0174-12.3403,1.7449-20,1.8389
		V220.3881z"/>
	<path d="M6.1271,138.3541c1.2647,0.0761,2.4563-0.218,3.4846-0.7781l2.2689-19.2715c-0.0048-0.1808-0.0181-0.3596-0.0201-0.5411
		l0.0839-0.0004l2.8724-24.3981h2.8945c0.093-0.444,0.1868-0.8799,0.281-1.3118l-0.1545,1.3118l-1.879,15.9597
		c-0.6938,2.5764-1.0634,5.2776-1.0634,8.0616c0,17.7768,15.0486,32.1878,33.6121,32.1878c18.5634,0,33.6121-14.411,33.6121-32.1878
		c0-2.7843-0.3696-5.4859-1.0637-8.0626l-1.879-15.9587l-0.1556-1.3218c0.0949,0.4351,0.1895,0.8745,0.2831,1.3218h2.8931
		l2.8283,24.0218l0.1309-0.0007c0,0.3049-0.0159,0.606-0.024,0.909l2.27,19.2804c1.0286,0.5605,2.2205,0.8549,3.4857,0.7787
		c3.583-0.2056,6.3223-3.2778,6.1162-6.8618c-4.0459-70.4658-22.8281-80.3657-26.5518-81.6348c0,0-12.8682-1.9092-20.7188-1.9092
		c-0.4001,0-0.8107,0.005-1.2264,0.0127c-0.4156-0.0077-0.8263-0.0127-1.2264-0.0127c-2.2524,0-4.9178,0.1575-7.574,0.3817
		c2.1141,6.7643,3.0175,15.1272-0.722,23.1599c-1.6926,3.6371-3.9004,6.5831-6.5617,8.7557
		c-6.2379,5.0927-14.2342,4.8813-16.3754,2.2585c-0.4934-0.6044-0.7198-1.345-0.6375-2.0841
		c0.081-0.7255,0.4576-1.396,1.0605-1.8882c0.4191-0.3421,0.9423-0.6016,1.5995-0.794c1.0713-0.3123,1.9421-0.7497,2.663-1.3383
		c3.6031-2.9416,3.418-10.1882-0.5349-20.9583c-0.0886-0.2413-0.1585-0.4741-0.243-0.7136
		c-7.0544,7.7803-17.1121,27.4232-19.9451,76.7646C-0.1952,135.0762,2.5441,138.1485,6.1271,138.3541z"/>
	<path d="M48.507,152.611c-16.1959,0-29.9656-10.1527-34.7975-24.1821l-8.5353,72.4975c0,0,15.0127,8.9999,43.333,8.9999
		s43.334-8.9999,43.334-8.9999l-8.5367-72.505C78.4745,142.454,64.7061,152.611,48.507,152.611z"/>
	<path d="M22.3586,54.6489c6.8434,18.6451,1.521,23.7908-3.6432,25.2974c-5.1642,1.5066,10.5557,6.9622,18.185-9.4271
		c5.3349-11.4606,0.2958-23.9445-3.2189-30.4217c-4.2017-3.3566-7.2447-8.1016-8.4268-13.5362
		C20.1334,31.9202,17.1391,40.428,22.3586,54.6489z"/>
	<path d="M48.5075,43c11.8741,0,21.5-9.6259,21.5-21.5c0-11.8741-9.6259-21.5-21.5-21.5s-21.5,9.6259-21.5,21.5
		C27.0075,33.3741,36.6334,43,48.5075,43z M63.5061,22.9604c0,0-5.6011,18.8069-20.795,6.1107
		C42.7112,29.0712,56.1805,29.4507,63.5061,22.9604z"/>
</g>
</svg>
