<?xml version="1.0" encoding="UTF-8"?>
<svg xmlns="http://www.w3.org/2000/svg" xmlns:xlink="http://www.w3.org/1999/xlink" width="60px" height="60px" viewBox="0 0 60 60" version="1.1">
    <!-- Generator: Sketch 52.6 (67491) - http://www.bohemiancoding.com/sketch -->
    <title>034 - Credit Card Discount</title>
    <desc>Created with Sketch.</desc>
    <g id="Page-1" stroke="none" stroke-width="1" fill="none" fill-rule="evenodd">
        <g id="034---Credit-Card-Discount">
            <g id="Icons_copy" transform="translate(1.000000, 1.000000)">
                <path d="M0,26 L28.48,26 C28.47,26.02 28.47,26.03 28.46,26.05 L27.28,29.61 L24.16,31.57 C23.995919,31.6725007 23.8668795,31.8224655 23.79,32 L4,32 C1.790861,32 2.22044605e-16,30.209139 0,28 L0,26 Z" id="Path" fill="#FFDC00"/>
                <path d="M25.48,26 C25.47,26.02 25.47,26.03 25.46,26.05 L24.28,29.61 L21.16,31.57 C20.995919,31.6725007 20.8668795,31.8224655 20.79,32 L23.79,32 C23.8668795,31.8224655 23.995919,31.6725007 24.16,31.57 L27.28,29.61 L28.46,26.05 C28.47,26.03 28.47,26.02 28.48,26 L25.48,26 Z" id="Path" fill="#FF8401"/>
                <path d="M48,4 L48,18 L0,18 L0,4 C-2.22044605e-16,1.790861 1.790861,4.4408921e-16 4,0 L44,0 C46.209139,2.22044605e-16 48,1.790861 48,4 Z" id="Path" fill="#FFDC00"/>
                <path d="M44,0 L41,0 C43.209139,2.22044605e-16 45,1.790861 45,4 L45,18 L48,18 L48,4 C48,1.790861 46.209139,2.22044605e-16 44,0 Z" id="Path" fill="#FF8401"/>
                <path d="M48,18 L48,25.08 L47.06,24.98 L44.51,22.31 C44.2278688,22.0188127 43.8008284,21.9208676 43.42,22.06 L40,23.33 L36.58,22.06 C36.2024166,21.9195748 35.7774715,22.0179417 35.5,22.31 L32.94,24.98 L29.31,25.36 C28.9369342,25.4050608 28.6184341,25.6506512 28.48,26 L0,26 L0,18 L48,18 Z" id="Path" fill="#808080"/>
                <path d="M33.58,22.06 C33.2024166,21.9195748 32.7774715,22.0179417 32.5,22.31 L29.94,24.98 L26.31,25.36 C25.9369342,25.4050608 25.6184341,25.6506512 25.48,26 L28.48,26 C28.6184341,25.6506512 28.9369342,25.4050608 29.31,25.36 L32.94,24.98 L35.173,22.651 L33.58,22.06 Z" id="Path" fill="#404040"/>
                <polygon id="Path" fill="#404040" points="45 18 45 22.823 47.06 24.98 48 25.08 48 18"/>
                <path d="M41.51,22.31 C41.2278688,22.0188127 40.8008284,21.9208676 40.42,22.06 L38.5,22.773 L40,23.33 L41.834,22.649 L41.51,22.31 Z" id="Path" fill="#404040"/>
                <rect id="Rectangle" fill="#FFDC00" x="5" y="5" width="10" height="8" rx="2"/>
                <path d="M13,5 L10,5 C11.1045695,5 12,5.8954305 12,7 L12,11 C12,12.1045695 11.1045695,13 10,13 L13,13 C14.1045695,13 15,12.1045695 15,11 L15,7 C15,5.8954305 14.1045695,5 13,5 Z" id="Path" fill="#FF8401"/>
                <path d="M57.85,40.53 L55.86,43.71 L56.31,47.45 C56.3514982,47.8393026 56.1695636,48.2186556 55.84,48.43 L52.72,50.39 L51.54,53.95 C51.4151991,54.3258935 51.0835208,54.5951382 50.69,54.64 L47.06,55.02 L44.5,57.69 C44.2225285,57.9820583 43.7975834,58.0804252 43.42,57.94 L40,56.67 L36.58,57.94 C36.1991716,58.0791324 35.7721312,57.9811873 35.49,57.69 L32.94,55.02 L29.31,54.63 C28.9179139,54.5894352 28.5856431,54.3236186 28.46,53.95 L27.28,50.39 L24.16,48.43 C23.8304364,48.2186556 23.6485018,47.8393026 23.69,47.45 L24.14,43.71 L22.15,40.53 C21.9499226,40.2049905 21.9499226,39.7950095 22.15,39.47 L24.14,36.29 L23.69,32.55 C23.6576132,32.1623196 23.8374052,31.7874341 24.16,31.57 L27.28,29.61 L28.46,26.05 C28.5848009,25.6741065 28.9164792,25.4048618 29.31,25.36 L32.94,24.98 L35.5,22.31 C35.7774715,22.0179417 36.2024166,21.9195748 36.58,22.06 L40,23.33 L43.42,22.06 C43.8008284,21.9208676 44.2278688,22.0188127 44.51,22.31 L47.06,24.98 L48,25.08 L50.69,25.37 C51.0820861,25.4105648 51.4143569,25.6763814 51.54,26.05 L52.72,29.61 L55.84,31.57 C56.1695636,31.7813444 56.3514982,32.1606974 56.31,32.55 L55.86,36.29 L57.85,39.47 C58.0500774,39.7950095 58.0500774,40.2049905 57.85,40.53 Z" id="Path" fill="#DB4E6C"/>
                <path d="M57.847,39.466 L55.862,36.289 L56.308,32.548 C56.3537171,32.1610841 56.1732609,31.7822817 55.844,31.574 L52.719,29.607 L51.541,26.052 C51.4168076,25.6757879 51.0839409,25.4070694 50.69,25.365 L47.06,24.978 L44.505,22.311 C44.2265305,22.0205998 43.8022619,21.9231752 43.425,22.063 L41.832,22.653 L44.06,24.978 L47.69,25.365 C48.0839409,25.4070694 48.4168076,25.6757879 48.541,26.052 L49.719,29.607 L52.844,31.574 C53.1732609,31.7822817 53.3537171,32.1610841 53.308,32.548 L52.862,36.289 L54.847,39.466 C55.0510912,39.7927491 55.0510912,40.2072509 54.847,40.534 L52.862,43.712 L53.308,47.453 C53.3541092,47.8399504 53.1730478,48.2188164 52.843,48.426 L49.719,50.393 L48.54,53.949 C48.4158076,54.3252121 48.0829409,54.5939306 47.689,54.636 L44.059,55.023 L41.831,57.347 L43.424,57.937 C43.801585,58.0767219 44.2260776,57.979336 44.505,57.689 L47.059,55.023 L50.689,54.636 C51.0829409,54.5939306 51.4158076,54.3252121 51.54,53.949 L52.719,50.393 L55.843,48.426 C56.1730478,48.2188164 56.3541092,47.8399504 56.308,47.453 L55.862,43.712 L57.847,40.534 C58.0510912,40.2072509 58.0510912,39.7927491 57.847,39.466 Z" id="Path" fill="#A43B51"/>
                <path d="M49,32.986 C49.0032832,33.5107865 48.7961895,34.0150148 48.425,34.386 L34.383,48.42 C33.8168399,48.9886641 32.9631088,49.1587006 32.2222747,48.8503487 C31.4814405,48.5419967 31.0004792,47.8164311 31.005,47.014 C31.0017168,46.4892135 31.2088105,45.9849852 31.58,45.614 L45.617,31.58 C46.1826653,31.0077084 47.038751,30.8353595 47.7818031,31.1441775 C48.5248552,31.4529955 49.0065992,32.1813563 49,32.986 Z" id="Path" fill="#FFFFFF"/>
                <circle id="Oval" fill="#FFFFFF" cx="34" cy="34" r="3"/>
                <circle id="Oval" fill="#FFFFFF" cx="46" cy="46" r="3"/>
            </g>
            <g id="Icons_copy_2" transform="translate(1.000000, 1.000000)" fill="#FFFFFF">
                <path d="M24.14,43.71 L23.69,47.45 C23.6485018,47.8393026 23.8304364,48.2186556 24.16,48.43 L27.28,50.39 L28.46,53.95 C28.5856431,54.3236186 28.9179139,54.5894352 29.31,54.63 L32.94,55.02 L35.49,57.69 C35.7721312,57.9811873 36.1991716,58.0791324 36.58,57.94 L38.166,57.351 L35.94,55.02 L32.31,54.63 C31.9179139,54.5894352 31.5856431,54.3236186 31.46,53.95 L30.28,50.39 L27.16,48.43 C26.8304364,48.2186556 26.6485018,47.8393026 26.69,47.45 L27.14,43.71 L25.15,40.53 C24.9499226,40.2049905 24.9499226,39.7950095 25.15,39.47 L27.14,36.29 L26.69,32.55 C26.6676045,32.3607923 26.7024367,32.1692152 26.79,32 L23.79,32 C23.7024367,32.1692152 23.6676045,32.3607923 23.69,32.55 L24.14,36.29 L22.15,39.47 C21.9499226,39.7950095 21.9499226,40.2049905 22.15,40.53 L24.14,43.71 Z" id="Path"/>
                <path d="M43.42,57.94 C43.726327,58.0515367 44.0677931,58.0067542 44.335,57.82 C44.3959138,57.7821411 44.4528669,57.7382537 44.505,57.689 L44.83,57.349 L43,56.67 L41.5,57.227 L43.42,57.94 Z" id="Path"/>
                <path d="M31.46,26.05 C31.4780961,26.0051467 31.4994879,25.9616947 31.524,25.92 C31.511,25.947 31.491,25.971 31.48,26 C31.469,26.029 31.47,26.03 31.46,26.05 Z" id="Path"/>
                <path d="M4,32 L7,32 C4.790861,32 3,30.209139 3,28 L3,4 C3,1.790861 4.790861,4.4408921e-16 7,0 L4,0 C1.790861,-1.11022302e-16 2.22044605e-16,1.790861 0,4 L0,28 C2.22044605e-16,30.209139 1.790861,32 4,32 Z" id="Path"/>
            </g>
            <g id="Icons">
                <rect id="Rectangle" fill="#FFFFFF" x="0" y="5" width="2" height="8"/>
                <path d="M0,19 L0,29 C0.00330611633,31.7600532 2.23994685,33.9966939 5,34 L20.7,34 C21.2522847,34 21.7,33.5522847 21.7,33 C21.7,32.4477153 21.2522847,32 20.7,32 L5,32 C3.34314575,32 2,30.6568542 2,29 L2,28 L25.26,28 C25.8122847,28 26.26,27.5522847 26.26,27 C26.26,26.4477153 25.8122847,26 25.26,26 L2,26 L2,20 L48,20 L48,21.18 C48,21.7322847 48.4477153,22.18 49,22.18 C49.5522847,22.18 50,21.7322847 50,21.18 L50,5 C49.9966939,2.23994685 47.7600532,0.00330611633 45,-5.55777646e-16 L5,-5.55777646e-16 C2.23994685,0.00330611633 0.00330611633,2.23994685 -5.55777646e-16,5 C-5.11359096e-16,5.35726559 0.190598923,5.68739261 0.5,5.8660254 C0.809401077,6.0446582 1.19059892,6.0446582 1.5,5.8660254 C1.80940108,5.68739261 2,5.35726559 2,5 C2,3.34314575 3.34314575,2 5,2 L45,2 C46.6568542,2 48,3.34314575 48,5 L48,18 L2,18 L2,13 C2,12.4477153 1.55228475,12 1,12 C0.44771525,12 6.76353751e-17,12.4477153 0,13 L0,19 Z" id="Path" fill="#000000"/>
                <path d="M1.02,10 C0.46771525,10.0027614 0.0177614237,9.55728475 0.015,9.005 C0.0122385763,8.45271525 0.45771525,8.00276142 1.01,8 L1.02,8 C1.57228475,8 2.02,8.44771525 2.02,9 C2.02,9.55228475 1.57228475,10 1.02,10 Z" id="Path" fill="#000000"/>
                <path d="M14,15 C15.6568542,15 17,13.6568542 17,12 L17,8 C17,6.34314575 15.6568542,5 14,5 L8,5 C6.34314575,5 5,6.34314575 5,8 L5,12 C5,13.6568542 6.34314575,15 8,15 L14,15 Z M7,12 L7,8 C7,7.44771525 7.44771525,7 8,7 L14,7 C14.5522847,7 15,7.44771525 15,8 L15,12 C15,12.5522847 14.5522847,13 14,13 L8,13 C7.44771525,13 7,12.5522847 7,12 Z" id="Shape" fill="#000000" fill-rule="nonzero"/>
                <path d="M20,9 L44,9 C44.5522847,9 45,8.55228475 45,8 C45,7.44771525 44.5522847,7 44,7 L20,7 C19.4477153,7 19,7.44771525 19,8 C19,8.55228475 19.4477153,9 20,9 Z" id="Path" fill="#000000"/>
                <path d="M20,13 L32,13 C32.5522847,13 33,12.5522847 33,12 C33,11.4477153 32.5522847,11 32,11 L20,11 C19.4477153,11 19,11.4477153 19,12 C19,12.5522847 19.4477153,13 20,13 Z" id="Path" fill="#000000"/>
                <path d="M59.7,39.936 L57.9,37.058 L58.3,33.666 C58.3893576,32.8962521 58.0298241,32.1433694 57.375,31.729 L54.555,29.952 L53.49,26.737 C53.2419169,25.9905994 52.5818267,25.457059 51.8,25.371 L48.533,25.022 L46.233,22.622 C45.680069,22.0424006 44.8359971,21.8460134 44.084,22.122 L41,23.264 L37.923,22.125 C37.1706974,21.8488447 36.3262497,22.0452279 35.773,22.625 L33.473,25.025 L30.207,25.374 C29.4214047,25.4563563 28.7565775,25.9905645 28.507,26.74 L27.441,29.955 L24.62,31.732 C23.9651759,32.1463694 23.6056424,32.8992521 23.695,33.669 L24.095,37.061 L22.295,39.939 C21.8894889,40.5907383 21.8894889,41.4162617 22.295,42.068 L24.095,44.946 L23.695,48.338 C23.6056424,49.1077479 23.9651759,49.8606306 24.62,50.275 L27.44,52.052 L28.506,55.267 C28.7559636,56.0130467 29.4176802,56.5450762 30.2,56.629 L33.467,56.978 L35.767,59.378 C36.3213328,59.9553654 37.164946,60.149683 37.916,59.873 L41,58.736 L44.077,59.875 C44.8282904,60.1529378 45.6728859,59.9584844 46.227,59.38 L48.527,56.98 L51.793,56.631 C52.5785953,56.5486437 53.2434225,56.0144355 53.493,55.265 L54.559,52.05 L57.38,50.273 C58.0348241,49.8586306 58.3943576,49.1057479 58.305,48.336 L57.905,44.944 L59.705,42.066 C60.1093969,41.4130672 60.1074578,40.587027 59.7,39.936 Z M58,41 L56.015,44.178 C55.8942695,44.3711792 55.8431144,44.5997894 55.87,44.826 L56.312,48.576 L53.187,50.543 C52.9908372,50.6667279 52.8437796,50.854792 52.771,51.075 L51.584,54.638 L47.954,55.025 C47.7193915,55.0491132 47.5008552,55.1553708 47.337,55.325 L44.771,58 L41.347,56.732 C41.123084,56.6491535 40.876916,56.6491535 40.653,56.732 L37.217,58 L34.663,55.334 C34.4991448,55.1643708 34.2806085,55.0581132 34.046,55.034 L30.408,54.64 L29.23,51.078 C29.1569652,50.8576396 29.0095377,50.6695546 28.813,50.546 L25.685,48.57 L26.131,44.83 C26.1578856,44.6037894 26.1067305,44.3751792 25.986,44.182 L24,41 L25.985,37.822 C26.1057305,37.6288208 26.1568856,37.4002106 26.13,37.174 L25.688,33.424 L28.813,31.457 C29.0091628,31.3332721 29.1562204,31.145208 29.229,30.925 L30.416,27.362 L34.046,26.975 C34.2806085,26.9508868 34.4991448,26.8446292 34.663,26.675 L37.229,24 L40.653,25.268 C40.876916,25.3508465 41.123084,25.3508465 41.347,25.268 L44.783,24 L47.337,26.666 C47.5008552,26.8356292 47.7193915,26.9418868 47.954,26.966 L51.592,27.36 L52.77,30.916 C52.8430348,31.1363604 52.9904623,31.3244454 53.187,31.448 L56.315,33.424 L55.869,37.164 C55.8421144,37.3902106 55.8932695,37.6188208 56.014,37.812 L58,41 Z" id="Shape" fill="#000000" fill-rule="nonzero"/>
                <path d="M51,33.986 C51.0046434,33.194172 50.6924703,32.4333625 50.133,31.873 C48.9523772,30.7471576 47.0956228,30.7471576 45.915,31.873 L31.873,45.91 C30.7270408,47.0776214 30.7358087,48.9505093 31.8926497,50.1073503 C33.0494907,51.2641913 34.9223786,51.2729592 36.09,50.127 L50.127,36.09 C50.6875825,35.5335824 51.0019874,34.7758413 51,33.986 Z M48.718,34.676 L34.675,48.713 C34.286218,49.0827782 33.675782,49.0827782 33.287,48.713 C32.9129903,48.3255309 32.9129903,47.7114691 33.287,47.324 L47.325,33.287 C47.7106313,32.9162132 48.322104,32.9223228 48.7002496,33.3007408 C49.0783952,33.6791589 49.0840644,34.2906358 48.713,34.676 L48.718,34.676 Z" id="Shape" fill="#000000" fill-rule="nonzero"/>
                <path d="M35,39 C37.209139,39 39,37.209139 39,35 C39,32.790861 37.209139,31 35,31 C32.790861,31 31,32.790861 31,35 C31,37.209139 32.790861,39 35,39 Z M35,33 C36.1045695,33 37,33.8954305 37,35 C37,36.1045695 36.1045695,37 35,37 C33.8954305,37 33,36.1045695 33,35 C33,33.8954305 33.8954305,33 35,33 Z" id="Shape" fill="#000000" fill-rule="nonzero"/>
                <path d="M47,43 C44.790861,43 43,44.790861 43,47 C43,49.209139 44.790861,51 47,51 C49.209139,51 51,49.209139 51,47 C51,44.790861 49.209139,43 47,43 Z M47,49 C45.8954305,49 45,48.1045695 45,47 C45,45.8954305 45.8954305,45 47,45 C48.1045695,45 49,45.8954305 49,47 C49,48.1045695 48.1045695,49 47,49 Z" id="Shape" fill="#000000" fill-rule="nonzero"/>
            </g>
        </g>
    </g>
</svg>
